<?xml version="1.0" encoding="UTF-8" standalone="no"?>
<!-- Created with Inkscape (http://www.inkscape.org/) -->
<svg id="svg4696" xmlns:rdf="http://www.w3.org/1999/02/22-rdf-syntax-ns#" xmlns="http://www.w3.org/2000/svg" height="165" width="740" version="1.1" xmlns:cc="http://creativecommons.org/ns#" xmlns:dc="http://purl.org/dc/elements/1.1/">
 <metadata id="metadata4701">
  <rdf:RDF>
   <cc:Work rdf:about="">
    <dc:format>image/svg+xml</dc:format>
    <dc:type rdf:resource="http://purl.org/dc/dcmitype/StillImage"/>
    <dc:title/>
   </cc:Work>
  </rdf:RDF>
 </metadata>
 <g id="layer1" transform="translate(0,-887.36218)">
  <g id="g14102" fill="#c0032c" transform="matrix(0.57894025,0,0,0.57894025,-1276.2285,644.63284)">
   <path id="path14104" d="m2747,701.53,0-62.547c-0.0001-0.50356,0.1734-0.92887,0.5204-1.2759,0.3469-0.34693,0.7723-0.52043,1.2759-0.5205h38.453c0.5055,0.00007,0.9312,0.17357,1.2773,0.5205,0.3459,0.347,0.5189,0.77231,0.519,1.2759v7.7477c-0.0001,0.50369-0.1731,0.929-0.519,1.2759-0.3461,0.34699-0.7718,0.5205-1.2773,0.52043h-27.966v17.762h23.338c0.5037,0.00009,0.9285,0.18898,1.2745,0.56666,0.3459,0.37769,0.519,0.78765,0.519,1.2297v7.7477c0,0.44026-0.1731,0.84924-0.519,1.2269-0.346,0.37778-0.7708,0.56667-1.2745,0.56658h-23.338v23.904c0,0.4421-0.173,0.852-0.519,1.2298-0.346,0.3777-0.7709,0.5666-1.2745,0.5666h-8.6935c-0.5036,0-0.929-0.1731-1.2759-0.519-0.347-0.3461-0.5205-0.7719-0.5204-1.2774z" style="text-align:start;"/>
   <path id="path14106" d="m2813.6,701.53,0-62.547c0-0.50356,0.1735-0.92887,0.5205-1.2759,0.347-0.34693,0.7723-0.52043,1.2759-0.5205h8.6934c0.5037,0.00007,0.9285,0.18941,1.2745,0.56806,0.346,0.37874,0.519,0.78822,0.519,1.2283v53.006h24.094c0.5035,0,0.9288,0.173,1.2759,0.519,0.3469,0.3461,0.5204,0.7709,0.5204,1.2745v7.7476c0,0.5056-0.1735,0.9314-0.5204,1.2774-0.3471,0.346-0.7724,0.5191-1.2759,0.5191h-34.581c-0.5036,0-0.9289-0.1731-1.2759-0.5191s-0.5205-0.7718-0.5205-1.2774z" style="text-align:start;"/>
   <path id="path14108" style="text-align:start;" d="m2889.2,701.53,0-30.045-21.542-31.556c-0.3767-0.6304-0.408-1.245-0.094-1.8439,0.3143-0.59874,0.8501-0.89811,1.6075-0.89818h9.6363c0.5671,0.00007,1.0707,0.28361,1.511,0.85062l15.118,21.732,15.118-21.732c0.4402-0.56701,0.9438-0.85055,1.511-0.85062h9.7315c0.7573,0.00007,1.2932,0.29944,1.6075,0.89818,0.3142,0.59889,0.283,1.2135-0.094,1.8439l-21.827,31.461v30.14c-0.0001,0.4422-0.1731,0.8521-0.5191,1.2298-0.346,0.3778-0.7708,0.5667-1.2744,0.5667h-8.6936c-0.5036,0-0.9289-0.1731-1.2758-0.519-0.347-0.3461-0.5205-0.7719-0.5205-1.2775z"/>
   <path id="path14110" style="text-align:start;" d="m2975.6,663.91c-9.449,0.00007-17.449,3.2923-24.031,9.9375-6.5819,6.6454-9.875,14.708-9.875,24.156s3.2931,17.448,9.875,24.031c1.5134,1.5134,3.1163,2.8658,4.7813,4.0312,1.3667,0.9566,2.7811,1.7777,4.25,2.5,4.524,2.2242,9.507,3.3438,15,3.3438,9.3539,0,17.331-3.2363,23.906-9.6875,0.067-0.065,0.1521-0.1215,0.2187-0.1875,1.1451-1.1399,2.1781-2.3367,3.125-3.5625,4.5214-5.8531,6.7813-12.657,6.7813-20.469,0-9.448-3.2928-17.511-9.9063-24.156-6.6137-6.6452-14.676-9.9374-24.125-9.9375zm-1.0937,12.281c0.3635-0.0167,0.7236,0,1.0937,0,5.9215,0.00007,11.061,2.1234,15.344,6.4062,4.2828,4.2829,6.4063,9.4222,6.4063,15.406,0,5.9205-2.123,10.998-6.375,15.25-4.2522,4.2521-9.3921,6.375-15.375,6.375-5.9832,0-11.061-2.1234-15.281-6.3438-4.2204-4.2204-6.3438-9.2972-6.3437-15.281-0.0001-5.9841,2.1249-11.123,6.375-15.406,3.9864-4.0151,8.7029-6.1564,14.156-6.4062z" transform="translate(0,-27.637817)"/>
   <path id="path14112" style="text-align:start;" d="m3029.4,664.84c-0.6939,0.00008-1.1853,0.24547-1.5312,0.75-0.3462,0.50467-0.3776,1.059-0.062,1.6875l20.156,43.812,1.3437,3,7.7187,16.781c0.3787,0.6939,0.9017,1.0312,1.5938,1.0312h0.9375c0.6919,0,1.2464-0.33735,1.625-1.0312l9.3125-20.25,1.5938-3.4375,18.375-39.906c0.315-0.62851,0.3158-1.1828-0.031-1.6875-0.3471-0.50453-0.8705-0.74992-1.5625-0.75h-9.6562c-0.819,0.00008-1.342,0.33732-1.5938,1.0312l-18.25,40.625h-0.4688l-18.25-40.625c-0.2519-0.69393-0.775-1.0312-1.5937-1.0312h-9.6563z" transform="translate(0,-27.637817)"/>
   <path id="path14114" style="text-align:start;" d="m3114.3,664.84c-0.5037,0.00008-0.9342,0.15307-1.2813,0.5-0.347,0.34699-0.5312,0.7777-0.5312,1.2812v33.969,3.1875,25.375c0,0.5055,0.1842,0.9665,0.5312,1.3125,0.3471,0.346,0.7776,0.5,1.2813,0.5h38.438c0.5056,0,0.9352-0.154,1.2812-0.5,0.3459-0.346,0.5312-0.807,0.5313-1.3125v-7.75c-0.0001-0.5036-0.1854-0.9041-0.5313-1.25-0.346-0.3461-0.7756-0.53125-1.2812-0.53125h-27.969v-16.531h23.344c0.5036,0,0.9351-0.1853,1.2812-0.53125,0.3459-0.34596,0.5-0.74627,0.5-1.25v-3.625-3.1875-1.0312c0-0.44009-0.154-0.84097-0.5-1.2188-0.3461-0.37769-0.7777-0.59367-1.2812-0.59375h-23.344v-15.469h27.969c0.5056,0.00007,0.9352-0.18425,1.2812-0.53125,0.3459-0.34693,0.5312-0.77755,0.5313-1.2812v-7.75c-0.0001-0.50355-0.1854-0.93426-0.5313-1.2812-0.346-0.34693-0.7756-0.49992-1.2812-0.5h-38.438z" transform="translate(0,-27.637817)"/>
   <path id="path14116" style="text-align:start;" d="m3182.8,664.84c-0.5037,0.00008-0.9342,0.15307-1.2812,0.5-0.3471,0.34699-0.5,0.7777-0.5,1.2812v22.812,3.1875,36.531c0,0.5055,0.1529,0.9665,0.5,1.3125,0.347,0.346,0.7774,0.5,1.2812,0.5h8.6875c0.5036,0,0.9351-0.1848,1.2813-0.5625,0.3458-0.3778,0.5312-0.8079,0.5312-1.25v-24.062h10.469l12.594,25c0.3132,0.5672,0.8061,0.875,1.5,0.875h9.9063c0.7573,0,1.3104-0.30745,1.6562-0.90625,0.3459-0.5988,0.3472-1.2152-0.031-1.8438l-13.1-23.96c4.2214-1.7012,7.6054-4.2552,10.156-7.625,2.5509-3.3698,3.8123-7.1858,3.8125-11.469-0.0001-0.18988,0-0.3745,0-0.5625-0.027-1.0838-0.1323-2.1349-0.3125-3.1562-0.712-4.0333-2.6425-7.5968-5.75-10.656-4.031-3.9685-8.8625-5.9374-14.531-5.9375h-27.031zm10.594,11.344,15.375,0c2.5201,0.00007,4.7357,0.8931,6.5937,2.6875,1.3639,1.3175,2.2312,2.8226,2.5937,4.5312,0.1314,0.61856,0.1876,1.2364,0.1876,1.9062,0,0.43013-0.044,0.87103-0.094,1.2812-0.253,2.112-1.1318,3.9489-2.6875,5.5312-1.858,1.8896-4.0738,2.8438-6.5937,2.8438h-15.375v-4.375-3.1875-11.219z" transform="translate(0,-27.637817)"/>
  </g>
  <path id="path14118" style="text-align:start;" fill="#002368" d="m468.74,887.36s-47.787,1.6109-69.569,1.4814h5.8138v8.9162c0,8.5046,0.0419,8.9689,0.50318,9.7268,0.57698,0.94648,1.2908,1.2857,2.8789,1.2857,1.0093,0,1.343,0.14793,2.3478,0.97827,1.2592,1.0405,2.2434,1.3178,5.6181,1.677,1.2733,0.13552,2.7234,0.51936,4.3603,1.1739,3.4015,1.3602,4.8765,1.6385,6.7919,1.2578,1.6102-0.32006,2.2097-0.24356,4.528,0.64287l1.1459,0.4472,1.5373-0.72671c1.476-0.6814,1.7121-0.7006,4.8354-0.69876h3.2983l2.4316,1.0342c3.5826,1.5625,4.5892,2.1273,5.5342,3.0187l0.83849,0.81056,0.0842,1.8447,0.0565,1.677c0.0869,1.9385,0.22886,4.9816,0.27956,6.764,0.0412,1.481,0.0778,2.2865,0.16767,2.851,0.0899,0.56441,0.22717,0.89622,0.50302,1.3137,0.33264,0.50244,0.85012,1.6009,1.118,2.4597,0.26774,0.85881,0.90022,2.5521,1.3976,3.7454,0.52915,1.2696,0.78434,2.1912,0.78262,3.1025,0,0.91136-0.25996,1.8045-0.78262,3.0466-0.40542,0.96318-0.5427,1.6056-0.58698,2.6553l8.1336-1.3416,6.5405-14.422h0.16767l5.7019,12.41,21.69-3.5497-24.177-51.988c-0.23224-0.45201-0.55416-0.81244-1.0062-1.118-0.45224-0.30536-0.95603-0.46284-1.4813-0.47516h-1.4814z"/>
  <path id="path14120" fill="#c0032c" d="m625.96,919.96-4.2669,28.34,18.603-9.0069-14.336-19.333z"/>
  <path id="path14122" d="m606.04,893.07,0.10683,0.177,13.834,18.646,72.003-2.689-66.024,10.756,35.064,47.306,78.974-74.197-133.96,0z" fill="#002368"/>
  <path id="path14124" style="text-align:start;" fill="#002368" d="m163.02,988.69c0.0237,0.75759,0.30526,1.4052,0.84299,1.9428,0.53753,0.53765,1.185,0.81869,1.9429,0.84313h17.595c0.7576-0.0243,1.4051-0.3055,1.9429-0.84313,0.53756-0.53763,0.81875-1.1852,0.84316-1.9428l-0.00017-78.3h20.968c0.82159-0.0243,1.4875-0.30539,1.9977-0.84312,0.51028-0.53756,0.77298-1.1852,0.78819-1.9428v-15.983c-0.0169-0.75749-0.27788-1.4051-0.78819-1.9428-0.51015-0.53754-1.1761-0.81859-1.9977-0.8431h-65.103c-0.82186,0.0243-1.4877,0.30556-1.9979,0.84311-0.51012,0.53773-0.77278,1.1854-0.78809,1.9428v15.983c0.0169,0.75769,0.27787,1.4053,0.78809,1.9428,0.51025,0.5377,1.1761,0.81875,1.9979,0.84312h20.968z"/>
  <path id="path14126" style="text-align:start;" fill="#002368" d="m228,888.84c-0.82169,0.0247-1.4743,0.301-1.9844,0.83852-0.51008,0.53773-0.79512,1.1711-0.81061,1.9286v93.634l66.299-10.817v-1.7329c-0.0169-0.75758-0.30019-1.3909-0.81054-1.9286-0.50998-0.53762-1.1627-0.81407-1.9845-0.83851h-40.612v-19.817h33.429c0.75746-0.0155,1.391-0.27243,1.9285-0.78261,0.53763-0.51011,0.84211-1.1627,0.86651-1.9845v-15.988c-0.0237-0.7575-0.32892-1.4188-0.86651-1.9565-0.53753-0.53757-1.1711-0.81402-1.9285-0.83852h-33.429v-18.168h40.612c0.82179-0.0243,1.4745-0.30079,1.9845-0.83851,0.51028-0.53756,0.79515-1.1988,0.81054-1.9565v-15.988c-0.0169-0.75749-0.30019-1.3908-0.81054-1.9286-0.50998-0.53755-1.1627-0.81401-1.9845-0.83852h-60.709z"/>
  <path id="path14128" style="text-align:start;" d="m304.84,888.84c-1.2677,0.0521-2.1478,0.4737-2.6273,1.3137-0.47959,0.84016-0.42479,1.7622,0.13961,2.7671l29.656,45.895-20.544,32.339,30.242-4.9193,3.6057-5.7019h0.27957l2.9908,4.5839,24.764-4.0249,2.3478-0.39131c-0.43396-0.21895-0.90695-0.46531-1.4534-0.75466-1.0549-0.55869-1.8515-1.022-2.5434-1.4534-1.0772-0.67147-1.8567-1.2531-2.6553-2.0124-1.9181-1.8236-2.5947-2.9926-2.9349-5.059-0.20824-1.2658-1.0675-3.3564-1.8168-4.6398-0.17882-0.30674-0.34514-0.56464-0.50301-0.75466-0.0615-0.0749-0.1102-0.1717-0.16767-0.22362-0.31202-0.28447-1.075-0.77595-1.6771-1.146-0.60186-0.37002-2.1838-1.7496-3.5217-3.0466-1.3375-1.297-2.8249-2.5963-3.2983-2.8789-0.47323-0.28258-1.1022-0.95605-1.3974-1.4814-0.29545-0.52534-0.89691-1.2326-1.3696-1.5932-0.4728-0.36061-1.106-0.89094-1.3696-1.1739-0.62441-0.67009-0.62583-1.9209,0-2.4876,0.43351-0.39246,1.6071-0.45994,13.053-0.58695,0.39115-0.004,0.56197,0.004,0.97831,0l13.584-0.16771,0.16767-4.9752c0.0717-2.3799,0.1102-10.027,0.13961-17.804,0-1.1842,0.0237-2.23,0.0271-3.41l0.027-16.211h-13.835c-0.52861,0.0186-1.0166,0.14444-1.4534,0.41926-0.43676,0.275-0.73255,0.58293-0.89444,0.89441l-17.19,27.252v0.0281h-0.13961l-16.854-27.28c-0.22616-0.31148-0.54112-0.61938-0.95032-0.89442-0.40917-0.27483-0.85029-0.40085-1.3696-0.41926z" fill="#002368"/>
  <path id="path14130" style="text-align:start;" d="m558.77,887.36c-11.29,0.30864-19.734,3.3511-25.379,9.1398-5.6454,5.7889-8.4691,12.474-8.4691,20.041,0.26638,7.7433,2.6947,13.961,7.2671,18.671l33.485-5.4783c-0.43682-0.19346-0.87419-0.40136-1.3136-0.58696-5.1567-2.4468-9.1139-4.7405-11.851-6.8758-2.7369-2.1352-4.1123-4.3904-4.1367-6.764-0.0169-2.1963,0.698-4.0631,2.1522-5.6181,1.454-1.5548,3.7249-2.3614,6.792-2.4317,4.0141,0.18335,7.8595,1.2051,11.544,3.0746,3.6839,1.8696,6.4305,3.4792,8.2455,4.8354,1.4875,0.82791,2.8016,1.0816,3.941,0.75467,1.1395-0.32679,1.981-0.93037,2.5156-1.7888l7.4907-11.292c0.32959-0.58031,0.45579-1.3362,0.41921-2.3199-0.0375-0.98354-0.47036-1.7674-1.3136-2.3478-2.2787-1.8694-6.1596-4.1054-11.627-6.7081-5.468-2.6026-12.057-4.0477-19.761-4.3044z" fill="#002368"/>
  <path id="path14132" style="text-align:start;" fill="#eb6565" d="m363.8,946.04,0.49263,0.73886c-0.17916-0.30674-0.33432-0.54883-0.49263-0.73886z"/>
  <path id="path14134" style="text-align:start;" fill="#c0032c" d="m386.17,954.08c-0.43209,0.006-0.88565,0.13154-1.4813,0.41926-1.1942,0.57805-1.6643,1.2607-2.4318,3.6056-0.28531,0.87145-0.80553,1.6995-1.5652,2.4876-1.4296,1.4832-1.9645,1.6445-5.0032,0.11179l-2.3478,0.39131-24.764,4.0249,16.239,25.016c0.24103,0.37572,0.61038,0.70287,1.0901,0.95032,0.47939,0.24742,0.93609,0.38214,1.3974,0.39131h20.376,26.581c1.2067-0.0426,2.0516-0.47315,2.5435-1.2857,0.215-0.35552,0.30627-0.74135,0.30762-1.146-0.66872-0.27747-1.4827-0.62237-2.6553-1.2019-3.6398-1.7986-4.392-2.4177-4.8634-3.9131-0.14739-0.46821-0.643-1.5783-1.09-2.4596-0.49399-0.97378-1.0217-2.5355-1.3137-3.9969-0.45079-2.2543-0.51181-2.4668-1.4255-3.2702-0.53611-0.47141-1.4022-1.5173-1.9006-2.3199-0.49856-0.80263-1.3306-1.9226-1.8447-2.4876-0.89076-0.97868-1.688-2.5732-3.8573-7.5187-0.91482-2.0858-1.0938-2.3225-3.6335-4.6957l-2.7112-2.4876-2.208-0.22362c-1.2113-0.11179-2.5726-0.27967-3.0187-0.36336-0.14434-0.027-0.27517-0.0304-0.41931-0.0281zm-44.469,12.158-30.242,4.9193-10.286,16.183c-0.62948,1.005-0.7029,1.927-0.19573,2.7671,0.50697,0.84006,1.4065,1.3177,2.6833,1.3696h20.376c0.58953-0.0183,1.1126-0.20023,1.5373-0.47516,0.42449-0.27493,0.75524-0.5549,0.97831-0.86647l15.149-23.898z"/>
  <path id="path14136" d="m328.18,889.7c0.15888,0.14655,0.31776,0.30604,0.43084,0.46178-0.11629-0.16114-0.26469-0.30704-0.43084-0.46178z" style="text-align:start;" fill="#e05e5e"/>
  <path id="path14138" d="m363.8,946.04,0.49263,0.73886c-0.17916-0.30674-0.33432-0.54883-0.49263-0.73886z" style="text-align:start;" fill="#e05e5e"/>
  <path id="path14140" style="text-align:start;" fill="#c0032c" d="m565.71,929.74-33.541,5.4783c0.51775,0.53362,1.0481,1.0426,1.6211,1.5373,5.6301,4.8602,12.158,8.9209,19.565,12.186,4.8631,2.285,8.5897,4.563,11.18,6.8479,2.5902,2.285,3.8887,4.9478,3.9131,7.9659-0.0554,2.6119-0.99978,4.7131-2.851,6.3168-1.8513,1.6038-4.2796,2.4418-7.2672,2.4876-4.6525-0.16189-8.7552-1.1609-12.326-2.9907-3.5713-1.8298-6.4106-3.5321-8.497-5.087-0.77581-0.53151-1.6403-0.73448-2.5994-0.64287-0.95907,0.0918-1.7465,0.60256-2.3757,1.5373l-6.7361,11.879c-0.49801,0.94394-0.67447,1.754-0.531,2.4596,0.14265,0.70565,0.51616,1.3512,1.118,1.9286,1.6588,1.9459,5.1771,4.2431,10.593,6.9038,5.4161,2.6607,12.885,4.1286,22.388,4.3882,10.872-0.32074,19.327-3.4822,25.379-9.5032,6.0515-6.0209,9.1286-12.979,9.2236-20.851-0.4278-9.7233-3.7589-17-9.9783-21.829-5.8115-4.5127-11.892-8.18-18.28-11.013z"/>
  <path id="path14142" style="text-align:start;" fill="#c0032c" d="m496.89,940.95-21.69,3.5497,5.4224,11.795-22.277,0,4.4442-9.7827-8.1616,1.3416c-0.0101,0.27027,0,0.55406,0,0.89442,0,1.6747-0.12001,2.2915-0.61491,3.3541-0.33298,0.71559-0.64148,1.554-0.64283,1.8447,0,0.41125-0.26165,0.8699-0.67082,1.2857-0.40911,0.41585-0.95897,0.8055-1.5373,0.97828-0.57654,0.17223-1.4623,0.51669-1.9845,0.78261-0.99683,0.50744-4.0722,2.888-6.1491,4.8075-1.406,1.2993-2.3476,1.9289-5.6739,3.7454-1.5421,0.84211-3.2894,2.0291-4.7795,3.1864-1.49,1.1573-2.7317,2.2936-3.3262,3.1025-1.0487,1.4274-1.8581,2.9642-2.3758,4.4162-0.51768,1.452-0.74864,2.8306-0.61501,3.969,0.0822,0.70077,0.46556,2.6067,0.86652,4.2485,0.43023,1.762,0.6617,2.8887,0.69871,3.6895,0.027,0.6006-0.0652,0.99373-0.25151,1.3416-0.0619,0.11595-0.11223,0.22984-0.19572,0.33541-0.26943,0.34234-0.8506,0.76719-1.4534,1.0901-0.60264,0.32287-1.2257,0.56126-1.5931,0.55901h14.646c1.4572-0.0366,2.6135-0.42155,3.4659-1.118,0.85222-0.69649,1.4594-1.5153,1.8167-2.4317l5.2827-11.711h39.885l5.2827,11.599c0.62617,1.3716,1.3419,2.3042,2.0962,2.851,0.75463,0.54683,1.7605,0.83196,3.0467,0.81057h16.267c1.1212-0.0397,1.9242-0.44734,2.4038-1.2019,0.47969-0.75453,0.5015-1.6345,0.0842-2.6274l-21.718-46.705z"/>
  <path id="path14144" style="text-align:start;" fill="#c0032c" d="m291.5,974.43-66.299,10.817,0,3.4379c0.0169,0.75759,0.30053,1.4189,0.81061,1.9565,0.51018,0.53765,1.1626,0.81408,1.9844,0.83852h60.709c0.82179-0.0243,1.4745-0.30086,1.9845-0.83852,0.51028-0.53763,0.79515-1.199,0.81054-1.9565v-14.255z"/>
  <g id="text4703" style="writing-mode:lr-tb;letter-spacing:8.29708672px;text-anchor:start;word-spacing:0px;text-align:start;" font-weight="normal" font-size="56.23872375px" font-stretch="normal" font-variant="normal" font-style="normal" font-family="Brandon Text Bold" line-height="125%" fill="#9fafb5">
   <path id="path24179" style="" d="m9.6731,927.13,0-31.548-8.6037,0c-0.30092,0.00003-0.55436-0.10323-0.76031-0.30979-0.20595-0.20649-0.30893-0.45964-0.30893-0.75945v-4.6116c0.00006188-0.3,0.10304-0.55,0.30899-0.76,0.20595-0.20649,0.45939-0.30975,0.76031-0.30979h24.575c0.29975,0.00004,0.5529,0.1033,0.75945,0.30979,0.2065,0.20656,0.30976,0.45971,0.30979,0.75945v4.6116c-0.000028,0.29981-0.10329,0.55296-0.30979,0.75945-0.20655,0.20656-0.4597,0.30982-0.75945,0.30979h-8.6037v31.548c-0.000019,0.26316-0.10328,0.50716-0.30979,0.73199-0.20654,0.22483-0.45969,0.33724-0.75945,0.33724h-5.2295c-0.26317,0-0.50717-0.11241-0.73199-0.33724-0.22484-0.22483-0.33726-0.46883-0.33725-0.73199z"/>
   <path id="path24181" style="" d="m41.272,927.13,0-37.229c-0.000005-0.26198,0.10326-0.50569,0.30979-0.73113,0.20652-0.22537,0.45967-0.33807,0.75945-0.33811h5.2295c0.29976,0.00004,0.55291,0.1033,0.75945,0.30979,0.20651,0.20656,0.30978,0.45971,0.30979,0.75945v14.904h18.333v-14.904c-0.00003-0.29974,0.10323-0.55289,0.30979-0.75945,0.20649-0.20649,0.45964-0.30975,0.75945-0.30979h5.1746c0.26198,0.00004,0.5054,0.11274,0.73027,0.33811,0.22479,0.22544,0.33721,0.46915,0.33725,0.73113v37.229c-0.000038,0.26316-0.11245,0.50716-0.33725,0.73199-0.22487,0.22483-0.46829,0.33724-0.73027,0.33724h-5.1746c-0.29981,0-0.55296-0.10297-0.75945-0.30892-0.20656-0.20596-0.30982-0.45939-0.30979-0.76031v-15.522h-18.333v15.522c-0.000012,0.30092-0.10327,0.55435-0.30979,0.76031-0.20654,0.20595-0.45968,0.30892-0.75945,0.30892h-5.2295c-0.29978,0-0.55293-0.11241-0.75945-0.33724-0.20653-0.22483-0.30979-0.46883-0.30979-0.73199z"/>
   <path id="path24183" style="" d="m92.187,927.13,0-37.229c-0.000005-0.29974,0.10326-0.55289,0.30979-0.75945,0.20652-0.20649,0.45967-0.30975,0.75945-0.30979h22.888c0.30089,0.00004,0.55433,0.1033,0.76031,0.30979,0.20592,0.20656,0.3089,0.45971,0.30893,0.75945v4.6116c-0.00003,0.29981-0.10301,0.55296-0.30893,0.75945-0.20598,0.20656-0.45942,0.30982-0.76031,0.30979h-16.646v9.2232h13.891c0.29975,0.00003,0.55261,0.11244,0.75859,0.33725,0.20592,0.22485,0.3089,0.46828,0.30893,0.73027v4.6683c-0.00003,0.29979-0.10301,0.55265-0.30893,0.75859-0.20598,0.20597-0.45884,0.30894-0.75859,0.30893h-13.891v9.8428h16.646c0.30089,0.00001,0.55433,0.10298,0.76031,0.30893,0.20592,0.20596,0.3089,0.45882,0.30893,0.75859v4.6116c-0.00003,0.30092-0.10301,0.55435-0.30893,0.76031-0.20598,0.20595-0.45942,0.30892-0.76031,0.30892h-22.888c-0.29978,0-0.55293-0.10297-0.75945-0.30892-0.20653-0.20596-0.30979-0.45939-0.30979-0.76031z"/>
  </g>
 </g>
</svg>
